<svg width="26" height="28" viewBox="0 0 26 28" fill="none" xmlns="http://www.w3.org/2000/svg">
<path d="M8 0H0V2H8V0Z" fill="#E3E5E7"/>
<path d="M26 26H18V28H26V26Z" fill="#E3E5E7"/>
<path d="M4 2H2V5H4V2Z" fill="#E3E5E7"/>
<path d="M6 5H4V8H6V5Z" fill="#E3E5E7"/>
<path d="M10 2H8V5H10V2Z" fill="#E3E5E7"/>
<path d="M8 8H6V11H8V8Z" fill="#E3E5E7"/>
<path d="M12 5H10V8H12V5Z" fill="#E3E5E7"/>
<path d="M10 11H8V14H10V11Z" fill="#E3E5E7"/>
<path d="M14 8H12V11H14V8Z" fill="#E3E5E7"/>
<path d="M12 14H10V17H12V14Z" fill="#E3E5E7"/>
<path d="M16 11H14V14H16V11Z" fill="#E3E5E7"/>
<path d="M18 8H16V11H18V8Z" fill="#E3E5E7"/>
<path d="M10 17H8V20H10V17Z" fill="#E3E5E7"/>
<path d="M8 20H6V23H8V20Z" fill="#E3E5E7"/>
<path d="M6 23H4V26H6V23Z" fill="#E3E5E7"/>
<path d="M4 26H2V28H4V26Z" fill="#E3E5E7"/>
<path d="M20 5H18V8H20V5Z" fill="#E3E5E7"/>
<path d="M22 2H20V5H22V2Z" fill="#E3E5E7"/>
<path d="M24 0H22V2H24V0Z" fill="#E3E5E7"/>
<path d="M14 17H12V20H14V17Z" fill="#E3E5E7"/>
<path d="M18 14H16V17H18V14Z" fill="#E3E5E7"/>
<path d="M16 20H14V23H16V20Z" fill="#E3E5E7"/>
<path d="M20 17H18V20H20V17Z" fill="#E3E5E7"/>
<path d="M18 23H16V26H18V23Z" fill="#E3E5E7"/>
<path d="M22 20H20V23H22V20Z" fill="#E3E5E7"/>
<path d="M24 23H22V26H24V23Z" fill="#E3E5E7"/>
</svg>
