<svg width="30" height="32" viewBox="0 0 30 32" fill="none" xmlns="http://www.w3.org/2000/svg">
<path d="M22.1538 0H7.38462V2.46154H22.1538V0Z" fill="#E3E5E7"/>
<path d="M2.46154 22.1538V7.38461H0V22.1538H2.46154Z" fill="#E3E5E7"/>
<path d="M29.5385 22.1538V7.38461H27.0769V22.1538H29.5385Z" fill="#E3E5E7"/>
<path d="M7.38462 2.46154H4.92308V4.92308H7.38462L7.38462 2.46154Z" fill="#E3E5E7"/>
<path d="M4.92308 4.92308H2.46154V7.38461L4.92308 7.38462V4.92308Z" fill="#E3E5E7"/>
<path d="M22.1538 4.92308H24.6154V2.46154H22.1538V4.92308Z" fill="#E3E5E7"/>
<path d="M24.6154 7.38461H27.0769V4.92308L24.6154 4.92308V7.38461Z" fill="#E3E5E7"/>
<path d="M9.84615 29.5385H22.1538V27.0769H9.84615V29.5385Z" fill="#E3E5E7"/>
<path d="M22.1538 27.0769H24.6154V24.6154H22.1538V27.0769Z" fill="#E3E5E7"/>
<path d="M24.6154 24.6154H27.0769V22.1538H24.6154V24.6154Z" fill="#E3E5E7"/>
<path d="M4.92308 29.5385V22.1538H2.46154V32H7.38462V29.5385H4.92308Z" fill="#E3E5E7"/>
<path d="M9.84615 27.0769H7.38462L7.38462 29.5385H9.84615V27.0769Z" fill="#E3E5E7"/>
<path d="M7.38462 7.38461V14.7692H9.84615V12.3077H12.3077V7.38461H7.38462Z" fill="#E3E5E7"/>
<path d="M12.3077 14.7692H9.84615V17.2308H12.3077V14.7692Z" fill="#E3E5E7"/>
<path d="M14.7692 17.2308H12.3077V19.6923H14.7692V17.2308Z" fill="#E3E5E7"/>
<path d="M17.2308 17.2308V19.6923H14.7692V22.1538H22.1538V17.2308H17.2308Z" fill="#E3E5E7"/>
</svg>


